<mxfile host="app.diagrams.net" agent="Mozilla/5.0 (Windows NT 10.0; Win64; x64) AppleWebKit/537.36 (KHTML, like Gecko) Chrome/128.0.0.0 Safari/537.36" version="24.7.8">
  <diagram name="페이지-1" id="9CkskRah__Hg56_En7rc">
    <mxGraphModel dx="3264" dy="2138" grid="0" gridSize="10" guides="1" tooltips="1" connect="1" arrows="1" fold="1" page="0" pageScale="1" pageWidth="827" pageHeight="1169" math="0" shadow="0">
      <root>
        <mxCell id="0" />
        <mxCell id="1" parent="0" />
        <mxCell id="926mVtKREk-NBweh6JJm-22" value="" style="verticalLabelPosition=bottom;verticalAlign=top;html=1;shape=hexagon;perimeter=hexagonPerimeter2;arcSize=6;size=0.12;" vertex="1" parent="1">
          <mxGeometry x="76.25" y="-837" width="125.5" height="61" as="geometry" />
        </mxCell>
        <mxCell id="zGX-GlkyC9ySDdE2pTy2-38" style="edgeStyle=none;curved=1;rounded=0;orthogonalLoop=1;jettySize=auto;html=1;exitX=0.5;exitY=1;exitDx=0;exitDy=0;exitPerimeter=0;entryX=0.5;entryY=0;entryDx=0;entryDy=0;fontSize=12;startSize=8;endSize=8;" parent="1" source="zGX-GlkyC9ySDdE2pTy2-1" target="zGX-GlkyC9ySDdE2pTy2-2" edge="1">
          <mxGeometry relative="1" as="geometry" />
        </mxCell>
        <mxCell id="zGX-GlkyC9ySDdE2pTy2-1" value="시작" style="strokeWidth=2;html=1;shape=mxgraph.flowchart.terminator;whiteSpace=wrap;" parent="1" vertex="1">
          <mxGeometry x="70" y="-71" width="137" height="43" as="geometry" />
        </mxCell>
        <mxCell id="zGX-GlkyC9ySDdE2pTy2-72" value="" style="edgeStyle=none;curved=1;rounded=0;orthogonalLoop=1;jettySize=auto;html=1;fontSize=12;startSize=8;endSize=8;" parent="1" target="zGX-GlkyC9ySDdE2pTy2-36" edge="1">
          <mxGeometry relative="1" as="geometry">
            <mxPoint x="138.62212643678163" y="214.5" as="sourcePoint" />
          </mxGeometry>
        </mxCell>
        <mxCell id="zGX-GlkyC9ySDdE2pTy2-2" value="" style="verticalLabelPosition=bottom;verticalAlign=top;html=1;shape=hexagon;perimeter=hexagonPerimeter2;arcSize=6;size=0.12;" parent="1" vertex="1">
          <mxGeometry x="75.75" y="3" width="125.5" height="61" as="geometry" />
        </mxCell>
        <mxCell id="zGX-GlkyC9ySDdE2pTy2-16" value="slider = 슬라이드&lt;div&gt;count = 0&lt;/div&gt;&lt;div&gt;LBtn = 좌측 버튼&lt;/div&gt;" style="text;html=1;align=center;verticalAlign=middle;whiteSpace=wrap;rounded=0;fontSize=11;horizontal=1;" parent="1" vertex="1">
          <mxGeometry x="88" y="21" width="101" height="30" as="geometry" />
        </mxCell>
        <mxCell id="zGX-GlkyC9ySDdE2pTy2-55" value="" style="edgeStyle=none;curved=1;rounded=0;orthogonalLoop=1;jettySize=auto;html=1;fontSize=12;startSize=8;endSize=8;" parent="1" source="zGX-GlkyC9ySDdE2pTy2-36" target="zGX-GlkyC9ySDdE2pTy2-54" edge="1">
          <mxGeometry relative="1" as="geometry" />
        </mxCell>
        <mxCell id="zGX-GlkyC9ySDdE2pTy2-36" value="count --" style="whiteSpace=wrap;html=1;verticalAlign=middle;arcSize=6;" parent="1" vertex="1">
          <mxGeometry x="79" y="259" width="120" height="42.5" as="geometry" />
        </mxCell>
        <mxCell id="zGX-GlkyC9ySDdE2pTy2-65" style="edgeStyle=none;curved=1;rounded=0;orthogonalLoop=1;jettySize=auto;html=1;exitX=0.5;exitY=1;exitDx=0;exitDy=0;entryX=0.5;entryY=0;entryDx=0;entryDy=0;fontSize=12;startSize=8;endSize=8;" parent="1" source="zGX-GlkyC9ySDdE2pTy2-54" target="zGX-GlkyC9ySDdE2pTy2-64" edge="1">
          <mxGeometry relative="1" as="geometry" />
        </mxCell>
        <mxCell id="zGX-GlkyC9ySDdE2pTy2-67" value="" style="edgeStyle=none;curved=1;rounded=0;orthogonalLoop=1;jettySize=auto;html=1;fontSize=12;startSize=8;endSize=8;" parent="1" source="zGX-GlkyC9ySDdE2pTy2-54" target="zGX-GlkyC9ySDdE2pTy2-66" edge="1">
          <mxGeometry relative="1" as="geometry" />
        </mxCell>
        <mxCell id="zGX-GlkyC9ySDdE2pTy2-54" value="count &amp;gt; 0" style="rhombus;whiteSpace=wrap;html=1;arcSize=6;" parent="1" vertex="1">
          <mxGeometry x="58" y="335.5" width="162" height="80" as="geometry" />
        </mxCell>
        <mxCell id="zGX-GlkyC9ySDdE2pTy2-64" value="translate(-count*100%)" style="shape=parallelogram;html=1;strokeWidth=2;perimeter=parallelogramPerimeter;whiteSpace=wrap;rounded=1;arcSize=12;size=0.23;" parent="1" vertex="1">
          <mxGeometry x="44" y="495.5" width="190" height="60" as="geometry" />
        </mxCell>
        <mxCell id="zGX-GlkyC9ySDdE2pTy2-76" style="edgeStyle=none;curved=1;rounded=0;orthogonalLoop=1;jettySize=auto;html=1;exitX=0.5;exitY=1;exitDx=0;exitDy=0;entryX=0;entryY=0.5;entryDx=0;entryDy=0;fontSize=12;startSize=8;endSize=8;" parent="1" source="zGX-GlkyC9ySDdE2pTy2-66" target="zGX-GlkyC9ySDdE2pTy2-64" edge="1">
          <mxGeometry relative="1" as="geometry">
            <Array as="points">
              <mxPoint x="-114" y="530" />
            </Array>
          </mxGeometry>
        </mxCell>
        <mxCell id="zGX-GlkyC9ySDdE2pTy2-66" value="count = slider.length" style="whiteSpace=wrap;html=1;arcSize=6;" parent="1" vertex="1">
          <mxGeometry x="-163" y="345.5" width="120" height="60" as="geometry" />
        </mxCell>
        <mxCell id="zGX-GlkyC9ySDdE2pTy2-68" value="no" style="text;html=1;align=center;verticalAlign=middle;resizable=0;points=[];fontSize=16;autosize=1;fillColor=default;" parent="1" vertex="1">
          <mxGeometry x="-9" y="359.5" width="36" height="31" as="geometry" />
        </mxCell>
        <mxCell id="zGX-GlkyC9ySDdE2pTy2-71" value="yes" style="text;html=1;align=center;verticalAlign=middle;resizable=0;points=[];fontSize=16;autosize=1;fillColor=default;" parent="1" vertex="1">
          <mxGeometry x="117.5" y="433.5" width="43" height="31" as="geometry" />
        </mxCell>
        <mxCell id="zGX-GlkyC9ySDdE2pTy2-74" value="" style="edgeStyle=none;curved=1;rounded=0;orthogonalLoop=1;jettySize=auto;html=1;fontSize=12;startSize=8;endSize=8;" parent="1" source="zGX-GlkyC9ySDdE2pTy2-2" target="zGX-GlkyC9ySDdE2pTy2-73" edge="1">
          <mxGeometry relative="1" as="geometry">
            <mxPoint x="139" y="64" as="sourcePoint" />
            <mxPoint x="139" y="203" as="targetPoint" />
          </mxGeometry>
        </mxCell>
        <mxCell id="zGX-GlkyC9ySDdE2pTy2-73" value="LBtn.addEventListener" style="whiteSpace=wrap;html=1;verticalAlign=middle;arcSize=6;" parent="1" vertex="1">
          <mxGeometry x="78.5" y="92" width="120" height="42.5" as="geometry" />
        </mxCell>
        <mxCell id="zGX-GlkyC9ySDdE2pTy2-75" value="종료" style="strokeWidth=2;html=1;shape=mxgraph.flowchart.terminator;whiteSpace=wrap;" parent="1" vertex="1">
          <mxGeometry x="89" y="589" width="100" height="60" as="geometry" />
        </mxCell>
        <mxCell id="zGX-GlkyC9ySDdE2pTy2-77" style="edgeStyle=none;curved=1;rounded=0;orthogonalLoop=1;jettySize=auto;html=1;exitX=0.5;exitY=1;exitDx=0;exitDy=0;entryX=0.5;entryY=0;entryDx=0;entryDy=0;entryPerimeter=0;fontSize=12;startSize=8;endSize=8;" parent="1" source="zGX-GlkyC9ySDdE2pTy2-64" target="zGX-GlkyC9ySDdE2pTy2-75" edge="1">
          <mxGeometry relative="1" as="geometry" />
        </mxCell>
        <mxCell id="zGX-GlkyC9ySDdE2pTy2-78" style="edgeStyle=none;curved=1;rounded=0;orthogonalLoop=1;jettySize=auto;html=1;exitX=0.5;exitY=1;exitDx=0;exitDy=0;exitPerimeter=0;entryX=0.5;entryY=0;entryDx=0;entryDy=0;fontSize=12;startSize=8;endSize=8;" parent="1" source="zGX-GlkyC9ySDdE2pTy2-79" target="zGX-GlkyC9ySDdE2pTy2-81" edge="1">
          <mxGeometry relative="1" as="geometry" />
        </mxCell>
        <mxCell id="zGX-GlkyC9ySDdE2pTy2-79" value="시작" style="strokeWidth=2;html=1;shape=mxgraph.flowchart.terminator;whiteSpace=wrap;" parent="1" vertex="1">
          <mxGeometry x="601" y="-71" width="137" height="43" as="geometry" />
        </mxCell>
        <mxCell id="zGX-GlkyC9ySDdE2pTy2-80" value="" style="edgeStyle=none;curved=1;rounded=0;orthogonalLoop=1;jettySize=auto;html=1;fontSize=12;startSize=8;endSize=8;" parent="1" target="zGX-GlkyC9ySDdE2pTy2-84" edge="1">
          <mxGeometry relative="1" as="geometry">
            <mxPoint x="669.6344936708861" y="220.49999999999977" as="sourcePoint" />
          </mxGeometry>
        </mxCell>
        <mxCell id="zGX-GlkyC9ySDdE2pTy2-81" value="" style="verticalLabelPosition=bottom;verticalAlign=top;html=1;shape=hexagon;perimeter=hexagonPerimeter2;arcSize=6;size=0.12;" parent="1" vertex="1">
          <mxGeometry x="606.75" y="3" width="125.5" height="61" as="geometry" />
        </mxCell>
        <mxCell id="zGX-GlkyC9ySDdE2pTy2-82" value="slider = 슬라이드&lt;div&gt;count = 0&lt;/div&gt;&lt;div&gt;RBtn = 우측 버튼&lt;/div&gt;" style="text;html=1;align=center;verticalAlign=middle;whiteSpace=wrap;rounded=0;fontSize=11;horizontal=1;" parent="1" vertex="1">
          <mxGeometry x="619" y="21" width="101" height="30" as="geometry" />
        </mxCell>
        <mxCell id="zGX-GlkyC9ySDdE2pTy2-83" value="" style="edgeStyle=none;curved=1;rounded=0;orthogonalLoop=1;jettySize=auto;html=1;fontSize=12;startSize=8;endSize=8;" parent="1" source="zGX-GlkyC9ySDdE2pTy2-84" target="zGX-GlkyC9ySDdE2pTy2-87" edge="1">
          <mxGeometry relative="1" as="geometry" />
        </mxCell>
        <mxCell id="zGX-GlkyC9ySDdE2pTy2-84" value="count ++" style="whiteSpace=wrap;html=1;verticalAlign=middle;arcSize=6;" parent="1" vertex="1">
          <mxGeometry x="610" y="257" width="120" height="42.5" as="geometry" />
        </mxCell>
        <mxCell id="zGX-GlkyC9ySDdE2pTy2-85" style="edgeStyle=none;curved=1;rounded=0;orthogonalLoop=1;jettySize=auto;html=1;exitX=0.5;exitY=1;exitDx=0;exitDy=0;entryX=0.5;entryY=0;entryDx=0;entryDy=0;fontSize=12;startSize=8;endSize=8;" parent="1" source="zGX-GlkyC9ySDdE2pTy2-87" target="zGX-GlkyC9ySDdE2pTy2-88" edge="1">
          <mxGeometry relative="1" as="geometry" />
        </mxCell>
        <mxCell id="zGX-GlkyC9ySDdE2pTy2-86" value="" style="edgeStyle=none;curved=1;rounded=0;orthogonalLoop=1;jettySize=auto;html=1;fontSize=12;startSize=8;endSize=8;" parent="1" source="zGX-GlkyC9ySDdE2pTy2-87" target="zGX-GlkyC9ySDdE2pTy2-90" edge="1">
          <mxGeometry relative="1" as="geometry" />
        </mxCell>
        <mxCell id="zGX-GlkyC9ySDdE2pTy2-87" value="count &amp;lt;= slider.length" style="rhombus;whiteSpace=wrap;html=1;arcSize=6;" parent="1" vertex="1">
          <mxGeometry x="589" y="333.5" width="162" height="80" as="geometry" />
        </mxCell>
        <mxCell id="zGX-GlkyC9ySDdE2pTy2-88" value="translate(-count*100%)" style="shape=parallelogram;html=1;strokeWidth=2;perimeter=parallelogramPerimeter;whiteSpace=wrap;rounded=1;arcSize=12;size=0.23;" parent="1" vertex="1">
          <mxGeometry x="575" y="493.5" width="190" height="60" as="geometry" />
        </mxCell>
        <mxCell id="zGX-GlkyC9ySDdE2pTy2-89" style="edgeStyle=none;curved=1;rounded=0;orthogonalLoop=1;jettySize=auto;html=1;exitX=0.5;exitY=1;exitDx=0;exitDy=0;entryX=0;entryY=0.5;entryDx=0;entryDy=0;fontSize=12;startSize=8;endSize=8;" parent="1" source="zGX-GlkyC9ySDdE2pTy2-90" target="zGX-GlkyC9ySDdE2pTy2-88" edge="1">
          <mxGeometry relative="1" as="geometry">
            <Array as="points">
              <mxPoint x="417" y="528" />
            </Array>
          </mxGeometry>
        </mxCell>
        <mxCell id="zGX-GlkyC9ySDdE2pTy2-90" value="count = 0" style="whiteSpace=wrap;html=1;arcSize=6;" parent="1" vertex="1">
          <mxGeometry x="368" y="343.5" width="120" height="60" as="geometry" />
        </mxCell>
        <mxCell id="zGX-GlkyC9ySDdE2pTy2-91" value="no" style="text;html=1;align=center;verticalAlign=middle;resizable=0;points=[];fontSize=16;autosize=1;fillColor=default;" parent="1" vertex="1">
          <mxGeometry x="522" y="357.5" width="36" height="31" as="geometry" />
        </mxCell>
        <mxCell id="zGX-GlkyC9ySDdE2pTy2-92" value="yes" style="text;html=1;align=center;verticalAlign=middle;resizable=0;points=[];fontSize=16;autosize=1;fillColor=default;" parent="1" vertex="1">
          <mxGeometry x="648.5" y="431.5" width="43" height="31" as="geometry" />
        </mxCell>
        <mxCell id="zGX-GlkyC9ySDdE2pTy2-93" value="" style="edgeStyle=none;curved=1;rounded=0;orthogonalLoop=1;jettySize=auto;html=1;fontSize=12;startSize=8;endSize=8;" parent="1" source="zGX-GlkyC9ySDdE2pTy2-81" target="zGX-GlkyC9ySDdE2pTy2-94" edge="1">
          <mxGeometry relative="1" as="geometry">
            <mxPoint x="670" y="64" as="sourcePoint" />
            <mxPoint x="670" y="203" as="targetPoint" />
          </mxGeometry>
        </mxCell>
        <mxCell id="zGX-GlkyC9ySDdE2pTy2-94" value="RBtn.addEventListener" style="whiteSpace=wrap;html=1;verticalAlign=middle;arcSize=6;" parent="1" vertex="1">
          <mxGeometry x="610" y="91" width="120" height="42.5" as="geometry" />
        </mxCell>
        <mxCell id="zGX-GlkyC9ySDdE2pTy2-95" value="종료" style="strokeWidth=2;html=1;shape=mxgraph.flowchart.terminator;whiteSpace=wrap;" parent="1" vertex="1">
          <mxGeometry x="620" y="587" width="100" height="60" as="geometry" />
        </mxCell>
        <mxCell id="zGX-GlkyC9ySDdE2pTy2-96" style="edgeStyle=none;curved=1;rounded=0;orthogonalLoop=1;jettySize=auto;html=1;exitX=0.5;exitY=1;exitDx=0;exitDy=0;entryX=0.5;entryY=0;entryDx=0;entryDy=0;entryPerimeter=0;fontSize=12;startSize=8;endSize=8;" parent="1" source="zGX-GlkyC9ySDdE2pTy2-88" target="zGX-GlkyC9ySDdE2pTy2-95" edge="1">
          <mxGeometry relative="1" as="geometry" />
        </mxCell>
        <mxCell id="zGX-GlkyC9ySDdE2pTy2-97" style="edgeStyle=none;curved=1;rounded=0;orthogonalLoop=1;jettySize=auto;html=1;exitX=0.5;exitY=1;exitDx=0;exitDy=0;exitPerimeter=0;entryX=0.5;entryY=0;entryDx=0;entryDy=0;fontSize=12;startSize=8;endSize=8;" parent="1" source="926mVtKREk-NBweh6JJm-22" edge="1">
          <mxGeometry relative="1" as="geometry">
            <mxPoint x="138.50000000000023" y="-738" as="targetPoint" />
          </mxGeometry>
        </mxCell>
        <mxCell id="zGX-GlkyC9ySDdE2pTy2-98" value="시작" style="strokeWidth=2;html=1;shape=mxgraph.flowchart.terminator;whiteSpace=wrap;" parent="1" vertex="1">
          <mxGeometry x="70" y="-929" width="137" height="43" as="geometry" />
        </mxCell>
        <mxCell id="zGX-GlkyC9ySDdE2pTy2-99" value="" style="edgeStyle=none;curved=1;rounded=0;orthogonalLoop=1;jettySize=auto;html=1;fontSize=12;startSize=8;endSize=8;" parent="1" target="zGX-GlkyC9ySDdE2pTy2-103" edge="1">
          <mxGeometry relative="1" as="geometry">
            <mxPoint x="138.99999999999977" y="-587.4999999999999" as="sourcePoint" />
          </mxGeometry>
        </mxCell>
        <mxCell id="zGX-GlkyC9ySDdE2pTy2-102" value="" style="edgeStyle=none;curved=1;rounded=0;orthogonalLoop=1;jettySize=auto;html=1;fontSize=12;startSize=8;endSize=8;" parent="1" source="zGX-GlkyC9ySDdE2pTy2-103" target="zGX-GlkyC9ySDdE2pTy2-106" edge="1">
          <mxGeometry relative="1" as="geometry" />
        </mxCell>
        <mxCell id="zGX-GlkyC9ySDdE2pTy2-103" value="카운트 값 증감" style="whiteSpace=wrap;html=1;verticalAlign=middle;arcSize=6;" parent="1" vertex="1">
          <mxGeometry x="79" y="-538" width="120" height="42.5" as="geometry" />
        </mxCell>
        <mxCell id="zGX-GlkyC9ySDdE2pTy2-104" style="edgeStyle=none;curved=1;rounded=0;orthogonalLoop=1;jettySize=auto;html=1;exitX=0.5;exitY=1;exitDx=0;exitDy=0;entryX=0.5;entryY=0;entryDx=0;entryDy=0;fontSize=12;startSize=8;endSize=8;" parent="1" source="zGX-GlkyC9ySDdE2pTy2-106" target="zGX-GlkyC9ySDdE2pTy2-107" edge="1">
          <mxGeometry relative="1" as="geometry" />
        </mxCell>
        <mxCell id="zGX-GlkyC9ySDdE2pTy2-105" value="" style="edgeStyle=none;curved=1;rounded=0;orthogonalLoop=1;jettySize=auto;html=1;fontSize=12;startSize=8;endSize=8;" parent="1" source="zGX-GlkyC9ySDdE2pTy2-106" target="zGX-GlkyC9ySDdE2pTy2-109" edge="1">
          <mxGeometry relative="1" as="geometry" />
        </mxCell>
        <mxCell id="zGX-GlkyC9ySDdE2pTy2-106" value="count &amp;gt; 0" style="rhombus;whiteSpace=wrap;html=1;arcSize=6;" parent="1" vertex="1">
          <mxGeometry x="58" y="-461.5" width="162" height="80" as="geometry" />
        </mxCell>
        <mxCell id="zGX-GlkyC9ySDdE2pTy2-107" value="translate(-count*100%)" style="shape=parallelogram;html=1;strokeWidth=2;perimeter=parallelogramPerimeter;whiteSpace=wrap;rounded=1;arcSize=12;size=0.23;" parent="1" vertex="1">
          <mxGeometry x="44" y="-301.5" width="190" height="60" as="geometry" />
        </mxCell>
        <mxCell id="zGX-GlkyC9ySDdE2pTy2-108" style="edgeStyle=none;curved=1;rounded=0;orthogonalLoop=1;jettySize=auto;html=1;exitX=0.5;exitY=1;exitDx=0;exitDy=0;entryX=0;entryY=0.5;entryDx=0;entryDy=0;fontSize=12;startSize=8;endSize=8;" parent="1" source="zGX-GlkyC9ySDdE2pTy2-109" target="zGX-GlkyC9ySDdE2pTy2-107" edge="1">
          <mxGeometry relative="1" as="geometry">
            <Array as="points">
              <mxPoint x="-114" y="-267" />
            </Array>
          </mxGeometry>
        </mxCell>
        <mxCell id="zGX-GlkyC9ySDdE2pTy2-109" value="count = slider.length" style="whiteSpace=wrap;html=1;arcSize=6;" parent="1" vertex="1">
          <mxGeometry x="-163" y="-451.5" width="120" height="60" as="geometry" />
        </mxCell>
        <mxCell id="zGX-GlkyC9ySDdE2pTy2-110" value="no" style="text;html=1;align=center;verticalAlign=middle;resizable=0;points=[];fontSize=16;autosize=1;fillColor=default;" parent="1" vertex="1">
          <mxGeometry x="-9" y="-437.5" width="36" height="31" as="geometry" />
        </mxCell>
        <mxCell id="zGX-GlkyC9ySDdE2pTy2-111" value="yes" style="text;html=1;align=center;verticalAlign=middle;resizable=0;points=[];fontSize=16;autosize=1;fillColor=default;" parent="1" vertex="1">
          <mxGeometry x="117.5" y="-363.5" width="43" height="31" as="geometry" />
        </mxCell>
        <mxCell id="zGX-GlkyC9ySDdE2pTy2-112" value="" style="edgeStyle=none;curved=1;rounded=0;orthogonalLoop=1;jettySize=auto;html=1;fontSize=12;startSize=8;endSize=8;" parent="1" edge="1">
          <mxGeometry relative="1" as="geometry">
            <mxPoint x="138.65443037974683" y="-677" as="sourcePoint" />
            <mxPoint x="138.89240506329088" y="-629.9999999999999" as="targetPoint" />
          </mxGeometry>
        </mxCell>
        <mxCell id="zGX-GlkyC9ySDdE2pTy2-114" value="종료" style="strokeWidth=2;html=1;shape=mxgraph.flowchart.terminator;whiteSpace=wrap;" parent="1" vertex="1">
          <mxGeometry x="89" y="-208" width="100" height="60" as="geometry" />
        </mxCell>
        <mxCell id="zGX-GlkyC9ySDdE2pTy2-115" style="edgeStyle=none;curved=1;rounded=0;orthogonalLoop=1;jettySize=auto;html=1;exitX=0.5;exitY=1;exitDx=0;exitDy=0;entryX=0.5;entryY=0;entryDx=0;entryDy=0;entryPerimeter=0;fontSize=12;startSize=8;endSize=8;" parent="1" source="zGX-GlkyC9ySDdE2pTy2-107" target="zGX-GlkyC9ySDdE2pTy2-114" edge="1">
          <mxGeometry relative="1" as="geometry" />
        </mxCell>
        <mxCell id="926mVtKREk-NBweh6JJm-1" value="&lt;div&gt;1. 메인 슬라이드 (누가 언제 어디서 무엇을 어떻게 왜)&lt;/div&gt;&lt;div&gt;&amp;nbsp; 슬라이더는 왼쪽의 좌우 버튼을 눌렀을 때&amp;nbsp;&lt;/div&gt;&lt;div&gt;화면 중앙에서 좌측에 있는 텍스트와 버튼만 translateX 한다.&amp;nbsp;&lt;/div&gt;&lt;div&gt;배경 사진은 움직이지 않음&lt;/div&gt;" style="text;html=1;align=center;verticalAlign=middle;resizable=0;points=[];fontSize=16;autosize=1;" vertex="1" parent="1">
          <mxGeometry x="-86" y="-1058" width="450" height="89" as="geometry" />
        </mxCell>
        <mxCell id="926mVtKREk-NBweh6JJm-2" value="&lt;div&gt;2. 프로젝트 탭&lt;/div&gt;&lt;div&gt;&amp;nbsp; 프로젝트 탭 아래의 탭 핸들을 눌렀을 때&amp;nbsp;&lt;/div&gt;&lt;div&gt;카테고리 별로 나타나고 사라진다.&amp;nbsp;&lt;/div&gt;&lt;div&gt;카테고리 필터 버튼은 다른 버튼을 누르기 전까지는&amp;nbsp;&lt;/div&gt;&lt;div&gt;선택되어 있는 것처럼 표시된다.&lt;/div&gt;" style="text;html=1;align=center;verticalAlign=middle;resizable=0;points=[];fontSize=16;autosize=1;" vertex="1" parent="1">
          <mxGeometry x="1341" y="-1067" width="385" height="108" as="geometry" />
        </mxCell>
        <mxCell id="926mVtKREk-NBweh6JJm-3" style="edgeStyle=none;curved=1;rounded=0;orthogonalLoop=1;jettySize=auto;html=1;exitX=0.5;exitY=1;exitDx=0;exitDy=0;exitPerimeter=0;entryX=0.5;entryY=0;entryDx=0;entryDy=0;fontSize=12;startSize=8;endSize=8;" edge="1" source="926mVtKREk-NBweh6JJm-4" target="926mVtKREk-NBweh6JJm-6" parent="1">
          <mxGeometry relative="1" as="geometry" />
        </mxCell>
        <mxCell id="926mVtKREk-NBweh6JJm-4" value="시작" style="strokeWidth=2;html=1;shape=mxgraph.flowchart.terminator;whiteSpace=wrap;" vertex="1" parent="1">
          <mxGeometry x="1699" y="-929" width="137" height="43" as="geometry" />
        </mxCell>
        <mxCell id="926mVtKREk-NBweh6JJm-5" value="" style="edgeStyle=none;curved=1;rounded=0;orthogonalLoop=1;jettySize=auto;html=1;fontSize=12;startSize=8;endSize=8;" edge="1" source="926mVtKREk-NBweh6JJm-19" target="926mVtKREk-NBweh6JJm-9" parent="1">
          <mxGeometry relative="1" as="geometry" />
        </mxCell>
        <mxCell id="926mVtKREk-NBweh6JJm-6" value="" style="verticalLabelPosition=bottom;verticalAlign=top;html=1;shape=hexagon;perimeter=hexagonPerimeter2;arcSize=6;size=0.12;" vertex="1" parent="1">
          <mxGeometry x="1704.75" y="-855" width="125.5" height="61" as="geometry" />
        </mxCell>
        <mxCell id="926mVtKREk-NBweh6JJm-7" value="handle = 탭 핸들&lt;div&gt;content = 컨텐츠&lt;/div&gt;" style="text;html=1;align=center;verticalAlign=middle;whiteSpace=wrap;rounded=0;fontSize=11;horizontal=1;" vertex="1" parent="1">
          <mxGeometry x="1717" y="-837" width="101" height="30" as="geometry" />
        </mxCell>
        <mxCell id="926mVtKREk-NBweh6JJm-8" value="" style="edgeStyle=none;curved=1;rounded=0;orthogonalLoop=1;jettySize=auto;html=1;fontSize=12;startSize=8;endSize=8;" edge="1" source="926mVtKREk-NBweh6JJm-9" parent="1">
          <mxGeometry relative="1" as="geometry">
            <mxPoint x="1767.9999999999995" y="-578.5" as="targetPoint" />
          </mxGeometry>
        </mxCell>
        <mxCell id="926mVtKREk-NBweh6JJm-9" value="function clicked" style="whiteSpace=wrap;html=1;verticalAlign=middle;arcSize=6;" vertex="1" parent="1">
          <mxGeometry x="1708" y="-670" width="120" height="42.5" as="geometry" />
        </mxCell>
        <mxCell id="926mVtKREk-NBweh6JJm-10" style="edgeStyle=none;curved=1;rounded=0;orthogonalLoop=1;jettySize=auto;html=1;exitX=0.5;exitY=1;exitDx=0;exitDy=0;entryX=0.5;entryY=0;entryDx=0;entryDy=0;fontSize=12;startSize=8;endSize=8;" edge="1" target="926mVtKREk-NBweh6JJm-41" parent="1">
          <mxGeometry relative="1" as="geometry">
            <mxPoint x="1768" y="-538" as="sourcePoint" />
            <mxPoint x="1768" y="-418.5" as="targetPoint" />
          </mxGeometry>
        </mxCell>
        <mxCell id="926mVtKREk-NBweh6JJm-18" value="" style="edgeStyle=none;curved=1;rounded=0;orthogonalLoop=1;jettySize=auto;html=1;fontSize=12;startSize=8;endSize=8;" edge="1" source="926mVtKREk-NBweh6JJm-6" target="926mVtKREk-NBweh6JJm-19" parent="1">
          <mxGeometry relative="1" as="geometry">
            <mxPoint x="1768" y="-794" as="sourcePoint" />
            <mxPoint x="1768" y="-655" as="targetPoint" />
          </mxGeometry>
        </mxCell>
        <mxCell id="926mVtKREk-NBweh6JJm-19" value="handle&lt;div&gt;.&lt;span style=&quot;background-color: initial;&quot;&gt;addEventListener&lt;/span&gt;&lt;/div&gt;" style="whiteSpace=wrap;html=1;verticalAlign=middle;arcSize=6;" vertex="1" parent="1">
          <mxGeometry x="1708" y="-747" width="120" height="42.5" as="geometry" />
        </mxCell>
        <mxCell id="926mVtKREk-NBweh6JJm-20" value="종료" style="strokeWidth=2;html=1;shape=mxgraph.flowchart.terminator;whiteSpace=wrap;" vertex="1" parent="1">
          <mxGeometry x="1718" y="-51" width="100" height="60" as="geometry" />
        </mxCell>
        <mxCell id="926mVtKREk-NBweh6JJm-21" style="edgeStyle=none;curved=1;rounded=0;orthogonalLoop=1;jettySize=auto;html=1;exitX=0.5;exitY=1;exitDx=0;exitDy=0;entryX=0.5;entryY=0;entryDx=0;entryDy=0;entryPerimeter=0;fontSize=12;startSize=8;endSize=8;" edge="1" source="926mVtKREk-NBweh6JJm-46" target="926mVtKREk-NBweh6JJm-20" parent="1">
          <mxGeometry relative="1" as="geometry">
            <mxPoint x="1768" y="-358.5" as="sourcePoint" />
          </mxGeometry>
        </mxCell>
        <mxCell id="926mVtKREk-NBweh6JJm-23" value="슬라이드 변수 선언&lt;div&gt;카운트 초기화&lt;/div&gt;&lt;div&gt;버튼 변수 선언&lt;/div&gt;" style="text;html=1;align=center;verticalAlign=middle;whiteSpace=wrap;rounded=0;fontSize=11;horizontal=1;" vertex="1" parent="1">
          <mxGeometry x="88.5" y="-821.5" width="101" height="30" as="geometry" />
        </mxCell>
        <mxCell id="926mVtKREk-NBweh6JJm-24" value="" style="edgeStyle=none;curved=1;rounded=0;orthogonalLoop=1;jettySize=auto;html=1;exitX=0.5;exitY=1;exitDx=0;exitDy=0;exitPerimeter=0;entryX=0.5;entryY=0;entryDx=0;entryDy=0;fontSize=12;startSize=8;endSize=8;" edge="1" parent="1" source="zGX-GlkyC9ySDdE2pTy2-98" target="926mVtKREk-NBweh6JJm-22">
          <mxGeometry relative="1" as="geometry">
            <mxPoint x="138" y="-886" as="sourcePoint" />
            <mxPoint x="139" y="-738" as="targetPoint" />
          </mxGeometry>
        </mxCell>
        <mxCell id="926mVtKREk-NBweh6JJm-28" value="이벤트 연결" style="whiteSpace=wrap;html=1;verticalAlign=middle;arcSize=6;" vertex="1" parent="1">
          <mxGeometry x="79" y="-735" width="120" height="60" as="geometry" />
        </mxCell>
        <mxCell id="926mVtKREk-NBweh6JJm-31" value="" style="edgeStyle=none;curved=1;rounded=0;orthogonalLoop=1;jettySize=auto;html=1;fontSize=12;startSize=8;endSize=8;" edge="1" parent="1" source="zGX-GlkyC9ySDdE2pTy2-73">
          <mxGeometry relative="1" as="geometry">
            <mxPoint x="139" y="135" as="sourcePoint" />
            <mxPoint x="138.50000000000023" y="172" as="targetPoint" />
          </mxGeometry>
        </mxCell>
        <mxCell id="926mVtKREk-NBweh6JJm-33" value="" style="edgeStyle=none;curved=1;rounded=0;orthogonalLoop=1;jettySize=auto;html=1;fontSize=12;startSize=8;endSize=8;" edge="1" parent="1" source="zGX-GlkyC9ySDdE2pTy2-94">
          <mxGeometry relative="1" as="geometry">
            <mxPoint x="670" y="133" as="sourcePoint" />
            <mxPoint x="669.6221264367819" y="177.99999999999977" as="targetPoint" />
          </mxGeometry>
        </mxCell>
        <mxCell id="926mVtKREk-NBweh6JJm-37" value="버튼 클릭" style="shape=parallelogram;perimeter=parallelogramPerimeter;whiteSpace=wrap;html=1;fixedSize=1;" vertex="1" parent="1">
          <mxGeometry x="87" y="-631" width="120" height="43.5" as="geometry" />
        </mxCell>
        <mxCell id="926mVtKREk-NBweh6JJm-38" value="Lbtn click" style="shape=parallelogram;perimeter=parallelogramPerimeter;whiteSpace=wrap;html=1;fixedSize=1;" vertex="1" parent="1">
          <mxGeometry x="81.75" y="169" width="120" height="47" as="geometry" />
        </mxCell>
        <mxCell id="926mVtKREk-NBweh6JJm-39" value="&lt;span style=&quot;color: rgb(0, 0, 0); font-family: Helvetica; font-size: 12px; font-style: normal; font-variant-ligatures: normal; font-variant-caps: normal; font-weight: 400; letter-spacing: normal; orphans: 2; text-align: center; text-indent: 0px; text-transform: none; widows: 2; word-spacing: 0px; -webkit-text-stroke-width: 0px; white-space: normal; background-color: rgb(255, 255, 255); text-decoration-thickness: initial; text-decoration-style: initial; text-decoration-color: initial; display: inline !important; float: none;&quot;&gt;RBtn click&lt;/span&gt;" style="shape=parallelogram;perimeter=parallelogramPerimeter;whiteSpace=wrap;html=1;fixedSize=1;" vertex="1" parent="1">
          <mxGeometry x="610" y="176" width="120" height="44" as="geometry" />
        </mxCell>
        <mxCell id="926mVtKREk-NBweh6JJm-40" value="handle click" style="shape=parallelogram;perimeter=parallelogramPerimeter;whiteSpace=wrap;html=1;fixedSize=1;" vertex="1" parent="1">
          <mxGeometry x="1707.5" y="-581" width="120" height="42" as="geometry" />
        </mxCell>
        <mxCell id="926mVtKREk-NBweh6JJm-41" value="handleAll.&lt;div&gt;classList.remove&lt;div&gt;(&quot;active&quot;)&lt;/div&gt;&lt;/div&gt;" style="rounded=0;whiteSpace=wrap;html=1;" vertex="1" parent="1">
          <mxGeometry x="1708" y="-508" width="120" height="39" as="geometry" />
        </mxCell>
        <mxCell id="926mVtKREk-NBweh6JJm-43" value="" style="edgeStyle=none;curved=1;rounded=0;orthogonalLoop=1;jettySize=auto;html=1;exitX=0.5;exitY=1;exitDx=0;exitDy=0;entryX=0.5;entryY=0;entryDx=0;entryDy=0;entryPerimeter=0;fontSize=12;startSize=8;endSize=8;" edge="1" parent="1" source="926mVtKREk-NBweh6JJm-41" target="926mVtKREk-NBweh6JJm-42">
          <mxGeometry relative="1" as="geometry">
            <mxPoint x="1768" y="-469" as="sourcePoint" />
            <mxPoint x="1768" y="-325" as="targetPoint" />
          </mxGeometry>
        </mxCell>
        <mxCell id="926mVtKREk-NBweh6JJm-42" value="handle.&lt;div&gt;classList.add(&quot;active&quot;)&lt;/div&gt;" style="rounded=0;whiteSpace=wrap;html=1;" vertex="1" parent="1">
          <mxGeometry x="1707.5" y="-434" width="120" height="39" as="geometry" />
        </mxCell>
        <mxCell id="926mVtKREk-NBweh6JJm-45" value="" style="edgeStyle=none;curved=1;rounded=0;orthogonalLoop=1;jettySize=auto;html=1;exitX=0.5;exitY=1;exitDx=0;exitDy=0;entryX=0.5;entryY=0;entryDx=0;entryDy=0;entryPerimeter=0;fontSize=12;startSize=8;endSize=8;" edge="1" parent="1" source="926mVtKREk-NBweh6JJm-42" target="926mVtKREk-NBweh6JJm-44">
          <mxGeometry relative="1" as="geometry">
            <mxPoint x="1768" y="-395" as="sourcePoint" />
            <mxPoint x="1768" y="68" as="targetPoint" />
          </mxGeometry>
        </mxCell>
        <mxCell id="926mVtKREk-NBweh6JJm-44" value="contentAll&lt;div&gt;.style.display = &quot;none&quot;&lt;/div&gt;" style="rounded=0;whiteSpace=wrap;html=1;" vertex="1" parent="1">
          <mxGeometry x="1707.5" y="-357" width="120" height="39" as="geometry" />
        </mxCell>
        <mxCell id="926mVtKREk-NBweh6JJm-47" value="" style="edgeStyle=none;curved=1;rounded=0;orthogonalLoop=1;jettySize=auto;html=1;exitX=0.5;exitY=1;exitDx=0;exitDy=0;entryX=0.5;entryY=0;entryDx=0;entryDy=0;entryPerimeter=0;fontSize=12;startSize=8;endSize=8;" edge="1" parent="1" source="926mVtKREk-NBweh6JJm-49" target="926mVtKREk-NBweh6JJm-46">
          <mxGeometry relative="1" as="geometry">
            <mxPoint x="1768" y="-318" as="sourcePoint" />
            <mxPoint x="1768" y="68" as="targetPoint" />
          </mxGeometry>
        </mxCell>
        <mxCell id="926mVtKREk-NBweh6JJm-46" value="selectedContent&lt;div&gt;.style.display = &quot;block&quot;&lt;/div&gt;" style="rounded=0;whiteSpace=wrap;html=1;" vertex="1" parent="1">
          <mxGeometry x="1707.5" y="-130" width="120" height="39" as="geometry" />
        </mxCell>
        <mxCell id="926mVtKREk-NBweh6JJm-50" value="" style="edgeStyle=none;curved=1;rounded=0;orthogonalLoop=1;jettySize=auto;html=1;exitX=0.5;exitY=1;exitDx=0;exitDy=0;fontSize=12;startSize=8;endSize=8;" edge="1" parent="1" source="926mVtKREk-NBweh6JJm-44">
          <mxGeometry relative="1" as="geometry">
            <mxPoint x="1768" y="-318" as="sourcePoint" />
            <mxPoint x="1768" y="-278" as="targetPoint" />
          </mxGeometry>
        </mxCell>
        <mxCell id="926mVtKREk-NBweh6JJm-53" value="" style="edgeStyle=none;curved=1;rounded=0;orthogonalLoop=1;jettySize=auto;html=1;fontSize=12;startSize=8;endSize=8;entryX=1;entryY=0.5;entryDx=0;entryDy=0;" edge="1" parent="1" source="926mVtKREk-NBweh6JJm-49" target="926mVtKREk-NBweh6JJm-44">
          <mxGeometry relative="1" as="geometry">
            <mxPoint x="1834.5" y="-241.5" as="targetPoint" />
            <Array as="points">
              <mxPoint x="1982" y="-238" />
            </Array>
          </mxGeometry>
        </mxCell>
        <mxCell id="926mVtKREk-NBweh6JJm-49" value="contentClass.indexOf&lt;div&gt;(handleId) !== -1&lt;/div&gt;" style="rhombus;whiteSpace=wrap;html=1;" vertex="1" parent="1">
          <mxGeometry x="1701" y="-298" width="133" height="113" as="geometry" />
        </mxCell>
        <mxCell id="926mVtKREk-NBweh6JJm-51" value="yes" style="text;html=1;align=center;verticalAlign=middle;resizable=0;points=[];fontSize=16;autosize=1;fillColor=default;" vertex="1" parent="1">
          <mxGeometry x="1746" y="-179" width="43" height="31" as="geometry" />
        </mxCell>
        <mxCell id="926mVtKREk-NBweh6JJm-57" value="no" style="text;html=1;align=center;verticalAlign=middle;resizable=0;points=[];fontSize=16;autosize=1;fillColor=default;" vertex="1" parent="1">
          <mxGeometry x="1906" y="-311" width="36" height="31" as="geometry" />
        </mxCell>
        <mxCell id="926mVtKREk-NBweh6JJm-59" style="edgeStyle=none;curved=1;rounded=0;orthogonalLoop=1;jettySize=auto;html=1;exitX=0.5;exitY=1;exitDx=0;exitDy=0;exitPerimeter=0;entryX=0.5;entryY=0;entryDx=0;entryDy=0;fontSize=12;startSize=8;endSize=8;" edge="1" source="926mVtKREk-NBweh6JJm-60" target="926mVtKREk-NBweh6JJm-62" parent="1">
          <mxGeometry relative="1" as="geometry" />
        </mxCell>
        <mxCell id="926mVtKREk-NBweh6JJm-60" value="시작" style="strokeWidth=2;html=1;shape=mxgraph.flowchart.terminator;whiteSpace=wrap;" vertex="1" parent="1">
          <mxGeometry x="1208" y="-929" width="137" height="43" as="geometry" />
        </mxCell>
        <mxCell id="926mVtKREk-NBweh6JJm-61" value="" style="edgeStyle=none;curved=1;rounded=0;orthogonalLoop=1;jettySize=auto;html=1;fontSize=12;startSize=8;endSize=8;" edge="1" source="926mVtKREk-NBweh6JJm-68" target="926mVtKREk-NBweh6JJm-65" parent="1">
          <mxGeometry relative="1" as="geometry" />
        </mxCell>
        <mxCell id="926mVtKREk-NBweh6JJm-62" value="" style="verticalLabelPosition=bottom;verticalAlign=top;html=1;shape=hexagon;perimeter=hexagonPerimeter2;arcSize=6;size=0.12;" vertex="1" parent="1">
          <mxGeometry x="1213.75" y="-855" width="125.5" height="61" as="geometry" />
        </mxCell>
        <mxCell id="926mVtKREk-NBweh6JJm-63" value="탭 핸들 변수선언&lt;div&gt;탭 컨텐츠 변수선언&lt;/div&gt;" style="text;html=1;align=center;verticalAlign=middle;whiteSpace=wrap;rounded=0;fontSize=11;horizontal=1;" vertex="1" parent="1">
          <mxGeometry x="1226" y="-837" width="101" height="30" as="geometry" />
        </mxCell>
        <mxCell id="926mVtKREk-NBweh6JJm-64" value="" style="edgeStyle=none;curved=1;rounded=0;orthogonalLoop=1;jettySize=auto;html=1;fontSize=12;startSize=8;endSize=8;" edge="1" source="926mVtKREk-NBweh6JJm-65" parent="1">
          <mxGeometry relative="1" as="geometry">
            <mxPoint x="1276.9999999999995" y="-578.5" as="targetPoint" />
          </mxGeometry>
        </mxCell>
        <mxCell id="926mVtKREk-NBweh6JJm-65" value="함수 설정" style="whiteSpace=wrap;html=1;verticalAlign=middle;arcSize=6;" vertex="1" parent="1">
          <mxGeometry x="1217" y="-670" width="120" height="42.5" as="geometry" />
        </mxCell>
        <mxCell id="926mVtKREk-NBweh6JJm-66" style="edgeStyle=none;curved=1;rounded=0;orthogonalLoop=1;jettySize=auto;html=1;exitX=0.5;exitY=1;exitDx=0;exitDy=0;entryX=0.5;entryY=0;entryDx=0;entryDy=0;fontSize=12;startSize=8;endSize=8;" edge="1" target="926mVtKREk-NBweh6JJm-72" parent="1">
          <mxGeometry relative="1" as="geometry">
            <mxPoint x="1277" y="-538" as="sourcePoint" />
            <mxPoint x="1277" y="-418.5" as="targetPoint" />
          </mxGeometry>
        </mxCell>
        <mxCell id="926mVtKREk-NBweh6JJm-67" value="" style="edgeStyle=none;curved=1;rounded=0;orthogonalLoop=1;jettySize=auto;html=1;fontSize=12;startSize=8;endSize=8;" edge="1" source="926mVtKREk-NBweh6JJm-62" target="926mVtKREk-NBweh6JJm-68" parent="1">
          <mxGeometry relative="1" as="geometry">
            <mxPoint x="1277" y="-794" as="sourcePoint" />
            <mxPoint x="1277" y="-655" as="targetPoint" />
          </mxGeometry>
        </mxCell>
        <mxCell id="926mVtKREk-NBweh6JJm-68" value="이벤트 연결" style="whiteSpace=wrap;html=1;verticalAlign=middle;arcSize=6;" vertex="1" parent="1">
          <mxGeometry x="1217" y="-747" width="120" height="42.5" as="geometry" />
        </mxCell>
        <mxCell id="926mVtKREk-NBweh6JJm-69" value="종료" style="strokeWidth=2;html=1;shape=mxgraph.flowchart.terminator;whiteSpace=wrap;" vertex="1" parent="1">
          <mxGeometry x="1227" y="-51" width="100" height="60" as="geometry" />
        </mxCell>
        <mxCell id="926mVtKREk-NBweh6JJm-70" style="edgeStyle=none;curved=1;rounded=0;orthogonalLoop=1;jettySize=auto;html=1;exitX=0.5;exitY=1;exitDx=0;exitDy=0;entryX=0.5;entryY=0;entryDx=0;entryDy=0;entryPerimeter=0;fontSize=12;startSize=8;endSize=8;" edge="1" source="926mVtKREk-NBweh6JJm-78" target="926mVtKREk-NBweh6JJm-69" parent="1">
          <mxGeometry relative="1" as="geometry">
            <mxPoint x="1277" y="-358.5" as="sourcePoint" />
          </mxGeometry>
        </mxCell>
        <mxCell id="926mVtKREk-NBweh6JJm-71" value="탭 핸들 클릭" style="shape=parallelogram;perimeter=parallelogramPerimeter;whiteSpace=wrap;html=1;fixedSize=1;" vertex="1" parent="1">
          <mxGeometry x="1216.5" y="-581" width="120" height="42" as="geometry" />
        </mxCell>
        <mxCell id="926mVtKREk-NBweh6JJm-72" value="액티브 클래스 부여" style="rounded=0;whiteSpace=wrap;html=1;" vertex="1" parent="1">
          <mxGeometry x="1217" y="-508" width="120" height="39" as="geometry" />
        </mxCell>
        <mxCell id="926mVtKREk-NBweh6JJm-73" value="" style="edgeStyle=none;curved=1;rounded=0;orthogonalLoop=1;jettySize=auto;html=1;exitX=0.5;exitY=1;exitDx=0;exitDy=0;entryX=0.5;entryY=0;entryDx=0;entryDy=0;entryPerimeter=0;fontSize=12;startSize=8;endSize=8;" edge="1" source="926mVtKREk-NBweh6JJm-72" target="926mVtKREk-NBweh6JJm-74" parent="1">
          <mxGeometry relative="1" as="geometry">
            <mxPoint x="1277" y="-469" as="sourcePoint" />
            <mxPoint x="1277" y="-325" as="targetPoint" />
          </mxGeometry>
        </mxCell>
        <mxCell id="926mVtKREk-NBweh6JJm-74" value="선택되지 않은 탭은&amp;nbsp;&lt;div&gt;액티브 클래스 제거&lt;/div&gt;" style="rounded=0;whiteSpace=wrap;html=1;" vertex="1" parent="1">
          <mxGeometry x="1216.5" y="-434" width="120" height="39" as="geometry" />
        </mxCell>
        <mxCell id="926mVtKREk-NBweh6JJm-75" value="" style="edgeStyle=none;curved=1;rounded=0;orthogonalLoop=1;jettySize=auto;html=1;exitX=0.5;exitY=1;exitDx=0;exitDy=0;entryX=0.5;entryY=0;entryDx=0;entryDy=0;entryPerimeter=0;fontSize=12;startSize=8;endSize=8;" edge="1" source="926mVtKREk-NBweh6JJm-74" target="926mVtKREk-NBweh6JJm-76" parent="1">
          <mxGeometry relative="1" as="geometry">
            <mxPoint x="1277" y="-395" as="sourcePoint" />
            <mxPoint x="1277" y="68" as="targetPoint" />
          </mxGeometry>
        </mxCell>
        <mxCell id="926mVtKREk-NBweh6JJm-76" value="모든 컨텐츠&amp;nbsp;&lt;span style=&quot;background-color: initial;&quot;&gt;숨김&lt;/span&gt;" style="rounded=0;whiteSpace=wrap;html=1;" vertex="1" parent="1">
          <mxGeometry x="1216.5" y="-357" width="120" height="39" as="geometry" />
        </mxCell>
        <mxCell id="926mVtKREk-NBweh6JJm-77" value="" style="edgeStyle=none;curved=1;rounded=0;orthogonalLoop=1;jettySize=auto;html=1;exitX=0.5;exitY=1;exitDx=0;exitDy=0;entryX=0.5;entryY=0;entryDx=0;entryDy=0;entryPerimeter=0;fontSize=12;startSize=8;endSize=8;" edge="1" source="926mVtKREk-NBweh6JJm-81" target="926mVtKREk-NBweh6JJm-78" parent="1">
          <mxGeometry relative="1" as="geometry">
            <mxPoint x="1277" y="-318" as="sourcePoint" />
            <mxPoint x="1277" y="68" as="targetPoint" />
          </mxGeometry>
        </mxCell>
        <mxCell id="926mVtKREk-NBweh6JJm-78" value="선택된 탭의 컨텐츠&lt;div&gt;디스플레이 블록&lt;/div&gt;" style="rounded=0;whiteSpace=wrap;html=1;" vertex="1" parent="1">
          <mxGeometry x="1216.5" y="-130" width="120" height="39" as="geometry" />
        </mxCell>
        <mxCell id="926mVtKREk-NBweh6JJm-79" value="" style="edgeStyle=none;curved=1;rounded=0;orthogonalLoop=1;jettySize=auto;html=1;exitX=0.5;exitY=1;exitDx=0;exitDy=0;fontSize=12;startSize=8;endSize=8;" edge="1" source="926mVtKREk-NBweh6JJm-76" parent="1">
          <mxGeometry relative="1" as="geometry">
            <mxPoint x="1277" y="-318" as="sourcePoint" />
            <mxPoint x="1277" y="-278" as="targetPoint" />
          </mxGeometry>
        </mxCell>
        <mxCell id="926mVtKREk-NBweh6JJm-80" value="" style="edgeStyle=none;curved=1;rounded=0;orthogonalLoop=1;jettySize=auto;html=1;fontSize=12;startSize=8;endSize=8;entryX=1;entryY=0.5;entryDx=0;entryDy=0;" edge="1" source="926mVtKREk-NBweh6JJm-81" target="926mVtKREk-NBweh6JJm-76" parent="1">
          <mxGeometry relative="1" as="geometry">
            <mxPoint x="1469.5" y="-241.5" as="targetPoint" />
            <Array as="points">
              <mxPoint x="1617" y="-238" />
            </Array>
          </mxGeometry>
        </mxCell>
        <mxCell id="926mVtKREk-NBweh6JJm-81" value="선택된 노드의 id가&lt;div&gt;컨텐츠 클래스와 동일한글자가 있는가?&lt;/div&gt;" style="rhombus;whiteSpace=wrap;html=1;" vertex="1" parent="1">
          <mxGeometry x="1210" y="-298" width="133" height="113" as="geometry" />
        </mxCell>
        <mxCell id="926mVtKREk-NBweh6JJm-82" value="yes" style="text;html=1;align=center;verticalAlign=middle;resizable=0;points=[];fontSize=16;autosize=1;fillColor=default;" vertex="1" parent="1">
          <mxGeometry x="1255" y="-179" width="43" height="31" as="geometry" />
        </mxCell>
        <mxCell id="926mVtKREk-NBweh6JJm-83" value="no" style="text;html=1;align=center;verticalAlign=middle;resizable=0;points=[];fontSize=16;autosize=1;fillColor=default;" vertex="1" parent="1">
          <mxGeometry x="1415" y="-311" width="36" height="31" as="geometry" />
        </mxCell>
      </root>
    </mxGraphModel>
  </diagram>
</mxfile>
